<svg width="3" height="13" viewBox="0 0 3 13" fill="none" xmlns="http://www.w3.org/2000/svg">
<path d="M1.5 3C2.32843 3 3 2.32843 3 1.5C3 0.671573 2.32843 0 1.5 0C0.671573 0 0 0.671573 0 1.5C0 2.32843 0.671573 3 1.5 3Z" fill="#303F95"/>
<path d="M1.5 7.79688C2.32843 7.79688 3 7.1253 3 6.29688C3 5.46845 2.32843 4.79688 1.5 4.79688C0.671573 4.79688 0 5.46845 0 6.29688C0 7.1253 0.671573 7.79688 1.5 7.79688Z" fill="#303F95"/>
<path d="M1.5 12.6016C2.32843 12.6016 3 11.93 3 11.1016C3 10.2731 2.32843 9.60156 1.5 9.60156C0.671573 9.60156 0 10.2731 0 11.1016C0 11.93 0.671573 12.6016 1.5 12.6016Z" fill="#303F95"/>
</svg>
