<svg width="24" height="25" viewBox="0 0 24 25" fill="none" xmlns="http://www.w3.org/2000/svg">
<path fill-rule="evenodd" clip-rule="evenodd" d="M12 16.1445C14.2091 16.1445 16 14.3537 16 12.1445C16 9.93539 14.2091 8.14453 12 8.14453C9.79086 8.14453 8 9.93539 8 12.1445C8 14.3537 9.79086 16.1445 12 16.1445Z" stroke="#2FD385" stroke-width="2" stroke-linecap="round" stroke-linejoin="round"/>
<path d="M16 12.1446V13.1446C16 14.8015 17.3431 16.1446 19 16.1446C20.6568 16.1446 22 14.8015 22 13.1446V12.1446C21.9997 7.49754 18.7981 3.46305 14.2726 2.40694C9.74712 1.35082 5.09046 3.55143 3.03324 7.71836C0.976012 11.8853 2.06043 16.9203 5.65061 19.8709C9.24079 22.8215 14.3905 22.9101 18.08 20.0846" stroke="#2FD385" stroke-width="2" stroke-linecap="round" stroke-linejoin="round"/>
</svg>
