<svg width="17" height="19" viewBox="0 0 17 19" fill="none" xmlns="http://www.w3.org/2000/svg">
<path d="M13.5 5.99577C13.5 7.49577 13 9.49577 10.6 10.2958C11.3 8.59577 11.4 6.89577 10.9 5.29577C10.2 3.19577 7.9 1.59577 6.3 0.695769C5.9 0.395769 5.2 0.795769 5.3 1.39577C5.3 2.49577 5 4.09577 3.3 5.79577C1.1 7.99577 0 10.2958 0 12.4958C0 15.3958 2 18.9958 6 18.9958C2 14.9958 5 11.4958 5 11.4958C5.8 17.3958 10 18.9958 12 18.9958C13.7 18.9958 17 17.7958 17 12.5958C17 9.49577 15.7 7.09577 14.6 5.69577C14.3 5.19577 13.6 5.49577 13.5 5.99577Z" fill="#F2994A"/>
</svg>
