<svg width="18" height="18" viewBox="0 0 18 18" fill="none" xmlns="http://www.w3.org/2000/svg">
<path d="M15.8126 3.22046C16.6735 3.22046 17.3714 2.49953 17.3714 1.61022C17.3714 0.720923 16.6735 0 15.8126 0C14.9518 0 14.2539 0.720923 14.2539 1.61022C14.2539 2.49953 14.9518 3.22046 15.8126 3.22046Z" fill="white"/>
<path d="M11.2675 3.07227H0.3125V15.6531H3.36163V11.5601H9.20427L11.87 15.6531H15.2843L12.3447 11.5412C13.2576 11.3903 13.9149 11.0319 14.3166 10.4661C14.7182 9.90026 14.9191 8.99486 14.9191 7.78772V6.84463C14.9191 6.12788 14.846 5.56203 14.7182 5.12819C14.5904 4.69438 14.3714 4.31715 14.061 3.97763C13.7323 3.65699 13.3671 3.43063 12.9289 3.27974C12.4908 3.14771 11.943 3.07227 11.2675 3.07227ZM10.7745 8.78739H3.36163V5.84494H10.7745C11.1944 5.84494 11.4865 5.92039 11.6326 6.05242C11.7787 6.18446 11.87 6.42965 11.87 6.78804V7.84435C11.87 8.22156 11.7787 8.46676 11.6326 8.59878C11.4865 8.73081 11.1944 8.78739 10.7745 8.78739Z" fill="white"/>
</svg>
