<svg width="20" height="21" viewBox="0 0 20 21" fill="none" xmlns="http://www.w3.org/2000/svg">
<path d="M14.1672 18V16.3333C14.1672 14.4924 12.6748 13 10.8339 13H4.1672C2.32625 13 0.833862 14.4924 0.833862 16.3333V18" stroke="#4F4F4F" stroke-linecap="round" stroke-linejoin="round"/>
<path fill-rule="evenodd" clip-rule="evenodd" d="M7.50045 9.66667C9.3414 9.66667 10.8338 8.17428 10.8338 6.33333C10.8338 4.49238 9.3414 3 7.50045 3C5.6595 3 4.16711 4.49238 4.16711 6.33333C4.16711 8.17428 5.6595 9.66667 7.50045 9.66667Z" stroke="#4F4F4F" stroke-linecap="round" stroke-linejoin="round"/>
<path d="M19.1671 18.0001V16.3334C19.166 14.8143 18.1379 13.4882 16.6671 13.1084" stroke="#4F4F4F" stroke-linecap="round" stroke-linejoin="round"/>
<path d="M13.3339 3.1084C14.8088 3.48604 15.8404 4.81506 15.8404 6.33757C15.8404 7.86007 14.8088 9.18909 13.3339 9.56673" stroke="#4F4F4F" stroke-linecap="round" stroke-linejoin="round"/>
</svg>
