<svg width="15" height="15" viewBox="0 0 15 15" fill="none" xmlns="http://www.w3.org/2000/svg">
<path d="M7.5 14.0625C5.75952 14.0625 4.09032 13.3711 2.85961 12.1404C1.6289 10.9097 0.9375 9.24048 0.9375 7.5C0.9375 5.75952 1.6289 4.09032 2.85961 2.85961C4.09032 1.6289 5.75952 0.9375 7.5 0.9375C9.24048 0.9375 10.9097 1.6289 12.1404 2.85961C13.3711 4.09032 14.0625 5.75952 14.0625 7.5C14.0625 9.24048 13.3711 10.9097 12.1404 12.1404C10.9097 13.3711 9.24048 14.0625 7.5 14.0625ZM7.5 15C9.48912 15 11.3968 14.2098 12.8033 12.8033C14.2098 11.3968 15 9.48912 15 7.5C15 5.51088 14.2098 3.60322 12.8033 2.1967C11.3968 0.790176 9.48912 0 7.5 0C5.51088 0 3.60322 0.790176 2.1967 2.1967C0.790176 3.60322 0 5.51088 0 7.5C0 9.48912 0.790176 11.3968 2.1967 12.8033C3.60322 14.2098 5.51088 15 7.5 15Z" fill="#303F95"/>
<path d="M11.5602 8.90625C11.6425 9.04877 11.6858 9.21043 11.6858 9.375C11.6858 9.53957 11.6425 9.70123 11.5602 9.84375C11.1489 10.5566 10.5571 11.1485 9.84428 11.5599C9.1315 11.9714 8.32292 12.1878 7.49992 12.1875C6.67707 12.1877 5.86869 11.9711 5.15609 11.5597C4.44349 11.1483 3.8518 10.5565 3.44054 9.84375C3.3583 9.7013 3.31498 9.53972 3.31494 9.37524C3.3149 9.21076 3.35813 9.04916 3.4403 8.90667C3.52247 8.76418 3.64068 8.64581 3.78307 8.56346C3.92545 8.48111 4.087 8.43767 4.25148 8.4375H10.7484C10.9129 8.4375 11.0746 8.48082 11.2171 8.56311C11.3596 8.64539 11.4779 8.76374 11.5602 8.90625ZM6.56242 6.09375C6.56242 6.87 6.14242 6.09375 5.62492 6.09375C5.10742 6.09375 4.68742 6.87 4.68742 6.09375C4.68742 5.3175 5.10742 4.6875 5.62492 4.6875C6.14242 4.6875 6.56242 5.3175 6.56242 6.09375ZM10.3124 6.09375C10.3124 6.87 9.89242 6.09375 9.37492 6.09375C8.85742 6.09375 8.43742 6.87 8.43742 6.09375C8.43742 5.3175 8.85742 4.6875 9.37492 4.6875C9.89242 4.6875 10.3124 5.3175 10.3124 6.09375Z" fill="#303F95"/>
</svg>
