<svg width="18" height="15" viewBox="0 0 18 15" fill="none" xmlns="http://www.w3.org/2000/svg">
<path d="M8.83333 9.66927H7.16667C5.79967 9.66875 4.45853 10.0419 3.28823 10.7484C2.11793 11.4548 1.163 12.4677 0.526668 13.6776C0.508782 13.453 0.499886 13.2279 0.500001 13.0026C0.500001 8.4001 4.23083 4.66927 8.83333 4.66927V0.0859375L17.5833 7.16927L8.83333 14.2526V9.66927ZM7.16667 8.0026H10.5V10.7593L14.9342 7.16927L10.5 3.57927V6.33594H8.83333C7.87521 6.33486 6.92816 6.54079 6.05699 6.93962C5.18582 7.33846 4.4111 7.92079 3.78583 8.64677C4.86193 8.22029 6.00914 8.0017 7.16667 8.0026Z" fill="#2FD385"/>
</svg>
