<svg width="311" height="354" viewBox="0 0 311 354" fill="none" xmlns="http://www.w3.org/2000/svg">
<path d="M3.84967 267.296C2.60647 266.055 1.71103 264.506 1.25577 262.81L2.70452 262.421C2.5143 261.712 2.41446 260.973 2.41446 260.218V258.237H0.914459V254.274H2.41446V250.312H0.914459V246.349H2.41446V242.386H0.914459V238.423H2.41446V234.46H0.914459V230.498H2.41446V226.535H0.914459V222.572H2.41446V218.609H0.914459V214.646H2.41446V210.684H0.914459V206.721H2.41446V202.758H0.914459V198.795H2.41446V194.833H0.914459V190.87H2.41446V186.907H0.914459V182.944H2.41446V178.981H0.914459V175.019H2.41446V171.056H0.914459V167.093H2.41446V163.13H0.914459V159.167H2.41446V155.205H0.914459V151.242H2.41446V147.279H0.914459V143.316H2.41446V139.354H0.914459V135.391H2.41446V131.428H0.914459V127.465H2.41446V123.502H0.914459V119.54H2.41446V115.577H0.914459V111.614H2.41446V107.651H0.914459V103.689H2.41446V99.7258H0.914459V95.763H2.41446V93.7816C2.41446 93.0274 2.5143 92.288 2.70452 91.5792L1.25577 91.1904C1.71103 89.4938 2.60647 87.945 3.84966 86.7039L4.90941 87.7655C5.42884 87.247 6.01982 86.7915 6.6734 86.4152L8.39466 85.4242L7.64624 84.1243L11.0888 82.1423L11.8372 83.4423L15.2797 81.4603L14.5313 80.1604L17.9738 78.1784L18.7222 79.4783L22.1647 77.4964L21.4163 76.1964L24.8588 74.2144L25.6072 75.5144L29.0497 73.5324L28.3013 72.2325L31.7438 70.2505L32.4922 71.5505L35.9348 69.5685L35.1863 68.2685L38.6288 66.2866L39.3773 67.5865L42.8198 65.6046L42.0714 64.3046L45.5139 62.3226L46.2623 63.6226L49.7048 61.6406L48.9564 60.3407L52.3989 58.3587L53.1473 59.6586L56.5898 57.6767L55.8414 56.3767L59.2839 54.3948L60.0324 55.6947L63.4749 53.7127L62.7264 52.4128L66.169 50.4308L66.9174 51.7308L70.3599 49.7488L69.6115 48.4489L73.054 46.4669L73.8024 47.7668L77.2449 45.7849L76.4965 44.4849L79.939 42.503L80.6874 43.8029L84.1299 41.8209L83.3815 40.521L86.824 38.539L87.5725 39.839L91.015 37.857L90.2665 36.5571L93.7091 34.5751L94.4575 35.875L97.9 33.8931L97.1516 32.5931L100.594 30.6111L101.343 31.9111L104.785 29.9291L104.037 28.6292L107.479 26.6472L108.228 27.9472L111.67 25.9652L110.922 24.6652L114.364 22.6833L115.113 23.9832L118.555 22.0013L117.807 20.7013L121.249 18.7193L121.998 20.0193L125.44 18.0373L124.692 16.7374L128.134 14.7554L128.883 16.0554L132.325 14.0734L131.577 12.7734L135.019 10.7915L135.768 12.0914L139.21 10.1094L138.462 8.8095L141.904 6.82753L142.653 8.12748L146.095 6.14551L145.347 4.84556L148.789 2.86359L149.538 4.16354L151.259 3.17256C151.91 2.79762 152.598 2.51587 153.305 2.32702L152.918 0.877877C154.609 0.425943 156.391 0.425943 158.082 0.877878L157.695 2.32702C158.402 2.51587 159.09 2.79762 159.741 3.17256L161.462 4.16354L162.211 2.8636L165.653 4.84556L164.905 6.14551L168.347 8.12748L169.096 6.82753L172.538 8.8095L171.79 10.1094L175.232 12.0914L175.981 10.7915L179.423 12.7734L178.675 14.0734L182.117 16.0554L182.866 14.7554L186.308 16.7374L185.56 18.0373L189.002 20.0193L189.751 18.7193L193.193 20.7013L192.445 22.0013L195.887 23.9832L196.636 22.6833L200.078 24.6652L199.33 25.9652L202.772 27.9472L203.521 26.6472L206.963 28.6292L206.215 29.9291L209.658 31.9111L210.406 30.6112L213.848 32.5931L213.1 33.8931L216.543 35.875L217.291 34.5751L220.733 36.5571L219.985 37.857L223.428 39.839L224.176 38.539L227.618 40.521L226.87 41.8209L230.313 43.8029L231.061 42.503L234.504 44.4849L233.755 45.7849L237.198 47.7668L237.946 46.4669L241.389 48.4489L240.64 49.7488L244.083 51.7308L244.831 50.4308L248.274 52.4128L247.525 53.7127L250.968 55.6947L251.716 54.3948L255.159 56.3767L254.41 57.6767L257.853 59.6587L258.601 58.3587L262.044 60.3407L261.295 61.6406L264.738 63.6226L265.486 62.3226L268.929 64.3046L268.18 65.6046L271.623 67.5865L272.371 66.2866L275.814 68.2685L275.065 69.5685L278.508 71.5505L279.256 70.2505L282.699 72.2325L281.95 73.5324L285.393 75.5144L286.141 74.2144L289.584 76.1964L288.835 77.4964L292.278 79.4783L293.026 78.1784L296.469 80.1604L295.72 81.4603L299.163 83.4423L299.911 82.1423L303.354 84.1243L302.605 85.4242L304.327 86.4152C304.98 86.7915 305.571 87.247 306.091 87.7655L307.15 86.7039C308.394 87.945 309.289 89.4938 309.744 91.1904L308.295 91.5791C308.486 92.288 308.586 93.0274 308.586 93.7816V95.7629H310.086V99.7257H308.586V103.688H310.086V107.651H308.586V111.614H310.086V115.577H308.586V119.54H310.086V123.502H308.586V127.465H310.086V131.428H308.586V135.391H310.086V139.354H308.586V143.316H310.086V147.279H308.586V151.242H310.086V155.205H308.586V159.167H310.086V163.13H308.586V167.093H310.086V171.056H308.586V175.019H310.086V178.981H308.586V182.944H310.086V186.907H308.586V190.87H310.086V194.833H308.586V198.795H310.086V202.758H308.586V206.721H310.086V210.684H308.586V214.646H310.086V218.609H308.586V222.572H310.086V226.535H308.586V230.498H310.086V234.46H308.586V238.423H310.086V242.386H308.586V246.349H310.086V250.311H308.586V254.274H310.086V258.237H308.586V260.218C308.586 260.973 308.486 261.712 308.295 262.421L309.744 262.81C309.289 264.506 308.394 266.055 307.15 267.296L306.091 266.234C305.571 266.753 304.98 267.208 304.327 267.585L302.605 268.576L303.354 269.876L299.911 271.858L299.163 270.558L295.72 272.54L296.469 273.84L293.026 275.822L292.278 274.522L288.835 276.504L289.584 277.804L286.141 279.786L285.393 278.486L281.95 280.468L282.699 281.768L279.256 283.749L278.508 282.45L275.065 284.432L275.814 285.731L272.371 287.713L271.623 286.413L268.18 288.395L268.929 289.695L265.486 291.677L264.738 290.377L261.295 292.359L262.044 293.659L258.601 295.641L257.853 294.341L254.41 296.323L255.159 297.623L251.716 299.605L250.968 298.305L247.525 300.287L248.274 301.587L244.831 303.569L244.083 302.269L240.64 304.251L241.389 305.551L237.946 307.533L237.198 306.233L233.755 308.215L234.503 309.515L231.061 311.497L230.313 310.197L226.87 312.179L227.618 313.479L224.176 315.461L223.428 314.161L219.985 316.143L220.733 317.443L217.291 319.425L216.543 318.125L213.1 320.107L213.848 321.407L210.406 323.389L209.657 322.089L206.215 324.071L206.963 325.371L203.521 327.353L202.772 326.053L199.33 328.035L200.078 329.335L196.636 331.317L195.887 330.017L192.445 331.999L193.193 333.299L189.751 335.281L189.002 333.981L185.56 335.963L186.308 337.263L182.866 339.245L182.117 337.945L178.675 339.927L179.423 341.227L175.981 343.209L175.232 341.909L171.79 343.891L172.538 345.19L169.096 347.172L168.347 345.873L164.905 347.854L165.653 349.154L162.211 351.136L161.462 349.836L159.741 350.827C159.09 351.202 158.402 351.484 157.695 351.673L158.082 353.122C156.391 353.574 154.609 353.574 152.918 353.122L153.305 351.673C152.598 351.484 151.91 351.202 151.259 350.827L149.538 349.836L148.789 351.136L145.347 349.154L146.095 347.854L142.653 345.873L141.904 347.172L138.462 345.19L139.21 343.891L135.768 341.909L135.019 343.209L131.577 341.227L132.325 339.927L128.883 337.945L128.134 339.245L124.692 337.263L125.44 335.963L121.998 333.981L121.249 335.281L117.807 333.299L118.555 331.999L115.113 330.017L114.364 331.317L110.922 329.335L111.67 328.035L108.228 326.053L107.479 327.353L104.037 325.371L104.785 324.071L101.343 322.089L100.594 323.389L97.1516 321.407L97.9 320.107L94.4575 318.125L93.7091 319.425L90.2665 317.443L91.015 316.143L87.5725 314.161L86.824 315.461L83.3815 313.479L84.1299 312.179L80.6874 310.197L79.939 311.497L76.4965 309.515L77.2449 308.215L73.8024 306.233L73.054 307.533L69.6115 305.551L70.3599 304.251L66.9174 302.269L66.169 303.569L62.7264 301.587L63.4749 300.287L60.0324 298.305L59.2839 299.605L55.8414 297.623L56.5898 296.323L53.1473 294.341L52.3989 295.641L48.9564 293.659L49.7048 292.359L46.2623 290.377L45.5139 291.677L42.0714 289.695L42.8198 288.395L39.3773 286.413L38.6289 287.713L35.1863 285.731L35.9348 284.432L32.4923 282.45L31.7438 283.749L28.3013 281.768L29.0497 280.468L25.6072 278.486L24.8588 279.786L21.4163 277.804L22.1647 276.504L18.7222 274.522L17.9738 275.822L14.5313 273.84L15.2797 272.54L11.8372 270.558L11.0888 271.858L7.64624 269.876L8.39466 268.576L6.67341 267.585C6.01983 267.208 5.42885 266.753 4.90942 266.234L3.84967 267.296Z" stroke="#D7EAE1" stroke-width="3" stroke-dasharray="4 4"/>
</svg>
