<svg width="407" height="452" viewBox="0 0 407 452" fill="none" xmlns="http://www.w3.org/2000/svg">
<path d="M227.266 65.3084L330.65 125.053C345.357 133.552 354.417 149.258 354.417 166.256V285.744C354.417 302.742 345.357 318.448 330.65 326.947L227.266 386.692C212.56 395.19 194.44 395.19 179.734 386.692L76.3496 326.947C61.6429 318.448 52.5832 302.742 52.5832 285.744V166.256C52.5832 149.258 61.6429 133.552 76.3496 125.053L179.734 65.3084C194.44 56.8096 212.56 56.8096 227.266 65.3084Z" fill="#D7EAE1" fill-opacity="0.2"/>
<path fill-rule="evenodd" clip-rule="evenodd" d="M233.208 7.96765C214.825 -2.65589 192.175 -2.65588 173.792 7.96766L29.708 91.232C11.3246 101.856 0 121.489 0 142.736V309.264C0 330.511 11.3247 350.145 29.708 360.768L173.792 444.032C192.175 454.656 214.825 454.656 233.208 444.032L377.292 360.768C395.675 350.145 407 330.511 407 309.264V142.736C407 121.489 395.675 101.856 377.292 91.232L233.208 7.96765ZM173.792 55.0077C192.175 44.3842 214.825 44.3842 233.208 55.0077L336.592 114.752C354.975 125.376 366.3 145.009 366.3 166.256V285.744C366.3 306.991 354.975 326.625 336.592 337.248L233.208 396.992C214.825 407.616 192.175 407.616 173.792 396.992L70.408 337.248C52.0247 326.625 40.7 306.991 40.7 285.744V166.256C40.7 145.009 52.0246 125.376 70.408 114.752L173.792 55.0077Z" fill="#D7EAE1" fill-opacity="0.2"/>
</svg>
