<svg width="20" height="20" viewBox="0 0 20 20" fill="none" xmlns="http://www.w3.org/2000/svg">
<path d="M1.66724 13.1665C1.11495 13.1665 0.667236 13.6142 0.667236 14.1665C0.667236 14.7188 1.11495 15.1665 1.66724 15.1665V13.1665ZM4.16724 7.49984L3.16724 7.49984V7.49984H4.16724ZM15.8339 7.49984L16.8339 7.49984L15.8339 7.49984ZM11.4422 17.4998L12.3072 18.0016C12.4867 17.6923 12.4873 17.3106 12.3088 17.0007C12.1303 16.6908 11.7999 16.4998 11.4422 16.4998V17.4998ZM8.5589 17.4998V16.4998C8.20127 16.4998 7.87086 16.6908 7.69237 17.0007C7.51387 17.3106 7.51445 17.6923 7.6939 18.0016L8.5589 17.4998ZM18.3339 13.1665H1.66724V15.1665H18.3339V13.1665ZM1.66724 15.1665C3.60023 15.1665 5.16724 13.5995 5.16724 11.6665H3.16724C3.16724 12.4949 2.49566 13.1665 1.66724 13.1665V15.1665ZM5.16724 11.6665V7.49984H3.16724V11.6665H5.16724ZM5.16724 7.49984C5.16724 4.83046 7.33119 2.6665 10.0006 2.6665V0.666504C6.22662 0.666504 3.16724 3.72589 3.16724 7.49984L5.16724 7.49984ZM10.0006 2.6665C12.6699 2.6665 14.8339 4.83046 14.8339 7.49984L16.8339 7.49984C16.8339 3.72589 13.7745 0.666504 10.0006 0.666504V2.6665ZM14.8339 7.49984V11.6665H16.8339V7.49984H14.8339ZM14.8339 11.6665C14.8339 13.5995 16.4009 15.1665 18.3339 15.1665V13.1665C17.5055 13.1665 16.8339 12.4949 16.8339 11.6665H14.8339ZM10.5772 16.9981C10.458 17.2037 10.2383 17.3302 10.0006 17.3302V19.3302C10.9513 19.3302 11.8302 18.824 12.3072 18.0016L10.5772 16.9981ZM10.0006 17.3302C9.76288 17.3302 9.54317 17.2037 9.4239 16.9981L7.6939 18.0016C8.17097 18.824 9.04981 19.3302 10.0006 19.3302V17.3302ZM8.5589 18.4998H11.4422V16.4998H8.5589V18.4998Z" fill="#4F4F4F"/>
</svg>
