<svg width="21" height="20" viewBox="0 0 21 20" fill="none" xmlns="http://www.w3.org/2000/svg">
<g clip-path="url(#clip0_716_35666)">
<path d="M1.45361 15.5V11C1.45361 7.27208 4.47569 4.25 8.20361 4.25C11.9315 4.25 14.9536 7.27208 14.9536 11V15.5" stroke="#4F4F4F" stroke-linecap="round" stroke-linejoin="round"/>
<path d="M14.9536 12.5H15.4536C15.4536 12.2239 15.2298 12 14.9536 12V12.5ZM1.45361 12.5V12C1.17747 12 0.953613 12.2239 0.953613 12.5H1.45361ZM14.4536 16.25C14.4536 16.8023 14.0059 17.25 13.4536 17.25V18.25C14.5582 18.25 15.4536 17.3546 15.4536 16.25H14.4536ZM13.4536 17.25H12.7036V18.25H13.4536V17.25ZM12.7036 17.25C12.1513 17.25 11.7036 16.8023 11.7036 16.25H10.7036C10.7036 17.3546 11.599 18.25 12.7036 18.25V17.25ZM11.7036 16.25V14H10.7036V16.25H11.7036ZM11.7036 14C11.7036 13.4477 12.1513 13 12.7036 13V12C11.599 12 10.7036 12.8954 10.7036 14H11.7036ZM12.7036 13H14.9536V12H12.7036V13ZM14.4536 12.5V16.25H15.4536V12.5H14.4536ZM0.953613 16.25C0.953613 17.3546 1.84904 18.25 2.95361 18.25V17.25C2.40133 17.25 1.95361 16.8023 1.95361 16.25H0.953613ZM2.95361 18.25H3.70361V17.25H2.95361V18.25ZM3.70361 18.25C4.80818 18.25 5.70361 17.3546 5.70361 16.25H4.70361C4.70361 16.8023 4.2559 17.25 3.70361 17.25V18.25ZM5.70361 16.25V14H4.70361V16.25H5.70361ZM5.70361 14C5.70361 12.8954 4.80818 12 3.70361 12V13C4.2559 13 4.70361 13.4477 4.70361 14H5.70361ZM3.70361 12H1.45361V13H3.70361V12ZM0.953613 12.5V16.25H1.95361V12.5H0.953613Z" fill="#4F4F4F"/>
<path d="M19.7036 3.5H14.7036" stroke="#4F4F4F" stroke-linecap="round" stroke-linejoin="round"/>
<path d="M17.2036 1V6" stroke="#4F4F4F" stroke-linecap="round" stroke-linejoin="round"/>
</g>
<defs>
<clipPath id="clip0_716_35666">
<rect width="20" height="20" fill="white" transform="translate(0.203613)"/>
</clipPath>
</defs>
</svg>
