<svg width="245" height="43" viewBox="0 0 245 43" fill="none" xmlns="http://www.w3.org/2000/svg">
<path d="M95.8242 17.9818H87.7966V7.45361H90.0643V16.1168H94.2973V7.45361H96.565V16.1168H97.8501V19.937H95.8242V17.9818Z" fill="#303F95"/>
<path d="M100.577 7.45361H102.845V14.4473L107.456 7.45361H109.648V17.9818H107.38V10.9881L102.754 17.9818H100.577V7.45361Z" fill="#303F95"/>
<path d="M117.581 17.5005C116.785 17.5005 116.075 17.3902 115.45 17.1696C114.835 16.939 114.316 16.6131 113.893 16.192C113.469 15.7709 113.147 15.2695 112.925 14.688C112.703 14.0964 112.593 13.4396 112.593 12.7177V12.4169C112.593 11.7752 112.703 11.1786 112.925 10.6271C113.147 10.0756 113.469 9.60439 113.893 9.21335C114.316 8.81227 114.835 8.50144 115.45 8.28086C116.075 8.05024 116.785 7.93493 117.581 7.93493V7.00244H119.849V7.93493C120.635 7.93493 121.336 8.05024 121.951 8.28086C122.575 8.50144 123.1 8.81227 123.523 9.21335C123.956 9.60439 124.284 10.0756 124.506 10.6271C124.727 11.1786 124.838 11.7752 124.838 12.4169V12.7177C124.838 13.4396 124.727 14.0964 124.506 14.688C124.284 15.2695 123.956 15.7709 123.523 16.192C123.1 16.6131 122.575 16.939 121.951 17.1696C121.336 17.3902 120.635 17.5005 119.849 17.5005V18.433H117.581V17.5005ZM122.495 12.4169C122.495 11.5947 122.273 10.958 121.83 10.5068C121.386 10.0556 120.726 9.82999 119.849 9.82999V15.6054C121.613 15.6054 122.495 14.6428 122.495 12.7177V12.4169ZM114.951 12.7177C114.951 13.6903 115.163 14.4172 115.586 14.8985C116.009 15.3698 116.674 15.6054 117.581 15.6054V9.82999C116.695 9.82999 116.034 10.0556 115.601 10.5068C115.168 10.958 114.951 11.5947 114.951 12.4169V12.7177Z" fill="#303F95"/>
<path d="M127.792 7.45361H131.874C133.305 7.45361 134.368 7.76945 135.064 8.40114C135.759 9.0228 136.107 9.86003 136.107 10.9129C136.107 11.9657 135.759 12.8079 135.064 13.4396C134.368 14.0613 133.305 14.3721 131.874 14.3721H130.06V17.9818H127.792V7.45361ZM131.647 12.5071C132.453 12.5071 133.018 12.3718 133.34 12.1011C133.673 11.8303 133.839 11.4343 133.839 10.9129C133.839 10.4015 133.673 10.0105 133.34 9.73971C133.018 9.45896 132.453 9.31859 131.647 9.31859H130.06V12.5071H131.647Z" fill="#303F95"/>
<path d="M143.44 18.1622C142.775 18.1622 142.14 18.062 141.535 17.8614C140.94 17.6609 140.411 17.3451 139.948 16.9139C139.494 16.4828 139.131 15.9313 138.859 15.2595C138.587 14.5777 138.451 13.7555 138.451 12.7929V12.4921C138.451 11.5696 138.587 10.7825 138.859 10.1308C139.131 9.46906 139.494 8.92761 139.948 8.50649C140.411 8.08536 140.94 7.77453 141.535 7.574C142.14 7.37346 142.775 7.27319 143.44 7.27319C144.105 7.27319 144.735 7.37346 145.33 7.574C145.934 7.77453 146.463 8.08536 146.917 8.50649C147.381 8.92761 147.748 9.46906 148.021 10.1308C148.293 10.7825 148.429 11.5696 148.429 12.4921V12.7929C148.429 13.7555 148.293 14.5777 148.021 15.2595C147.748 15.9313 147.381 16.4828 146.917 16.9139C146.463 17.3451 145.934 17.6609 145.33 17.8614C144.735 18.062 144.105 18.1622 143.44 18.1622ZM143.44 16.2672C143.783 16.2672 144.11 16.212 144.423 16.1017C144.745 15.9814 145.027 15.7859 145.269 15.5152C145.511 15.2445 145.703 14.8885 145.844 14.4473C145.995 14.0061 146.07 13.4547 146.07 12.7929V12.4921C146.07 11.8704 145.995 11.349 145.844 10.9279C145.703 10.5068 145.511 10.1659 145.269 9.90522C145.027 9.64453 144.745 9.45903 144.423 9.34874C144.11 9.22842 143.783 9.16825 143.44 9.16825C143.097 9.16825 142.765 9.22842 142.442 9.34874C142.13 9.45903 141.852 9.64453 141.611 9.90522C141.369 10.1659 141.172 10.5068 141.021 10.9279C140.88 11.349 140.809 11.8704 140.809 12.4921V12.7929C140.809 13.4547 140.88 14.0061 141.021 14.4473C141.172 14.8885 141.369 15.2445 141.611 15.5152C141.852 15.7859 142.13 15.9814 142.442 16.1017C142.765 16.212 143.097 16.2672 143.44 16.2672Z" fill="#303F95"/>
<path d="M151.449 7.45361H155.984C157.174 7.45361 158.05 7.70428 158.615 8.20561C159.179 8.69693 159.461 9.38376 159.461 10.2662C159.461 10.8076 159.325 11.2738 159.053 11.6649C158.791 12.0459 158.428 12.3216 157.965 12.4921C158.569 12.6325 159.043 12.9182 159.386 13.3494C159.739 13.7705 159.915 14.322 159.915 15.0038C159.915 15.455 159.844 15.8661 159.703 16.2371C159.562 16.5981 159.341 16.9089 159.038 17.1696C158.746 17.4303 158.363 17.6308 157.889 17.7712C157.415 17.9116 156.846 17.9818 156.181 17.9818H151.449V7.45361ZM155.773 16.2672C156.478 16.2672 156.967 16.1469 157.239 15.9062C157.511 15.6656 157.647 15.3096 157.647 14.8384C157.647 14.3671 157.511 14.0011 157.239 13.7404C156.967 13.4697 156.473 13.3344 155.758 13.3344H153.717V16.2672H155.773ZM155.531 11.8003C156.146 11.8003 156.574 11.6799 156.816 11.4393C157.068 11.1986 157.194 10.8728 157.194 10.4617C157.194 10.0406 157.073 9.71966 156.831 9.49907C156.589 9.27848 156.161 9.16818 155.546 9.16818H153.717V11.8003H155.531Z" fill="#303F95"/>
<path d="M168.383 15.831H164.467L163.666 17.9818H161.459L165.389 7.45361H167.657L171.588 17.9818H169.199L168.383 15.831ZM165.163 13.966H167.702L166.433 10.3113L165.163 13.966Z" fill="#303F95"/>
<path d="M176.113 13.8908C175.357 13.6502 174.792 13.2642 174.42 12.7327C174.047 12.2013 173.86 11.5696 173.86 10.8377C173.86 10.3263 173.946 9.86505 174.117 9.45395C174.289 9.03282 174.541 8.67687 174.873 8.3861C175.206 8.08529 175.619 7.85468 176.113 7.69425C176.617 7.53382 177.201 7.45361 177.866 7.45361H182.175V17.9818H179.907V14.1315H178.229L175.886 17.9818H173.407L176.113 13.8908ZM176.128 10.8377C176.128 11.0884 176.163 11.3089 176.234 11.4995C176.304 11.69 176.425 11.8504 176.597 11.9807C176.768 12.1011 176.99 12.1963 177.262 12.2665C177.544 12.3267 177.897 12.3567 178.32 12.3567H179.907V9.31859H178.32C177.897 9.31859 177.544 9.35368 177.262 9.42387C176.99 9.48403 176.768 9.57928 176.597 9.70963C176.425 9.82995 176.304 9.98537 176.234 10.1759C176.163 10.3664 176.128 10.587 176.128 10.8377Z" fill="#303F95"/>
<path d="M91.6518 36.0223C91.047 36.0223 90.4826 35.9572 89.9585 35.8268C89.4344 35.6965 88.9759 35.4859 88.5828 35.1951C88.1897 34.9044 87.8722 34.5283 87.6304 34.0671C87.3885 33.6059 87.2423 33.0444 87.1919 32.3826H89.5504C89.631 32.9541 89.8578 33.3903 90.2307 33.6911C90.6036 33.9819 91.0773 34.1273 91.6518 34.1273C91.934 34.1273 92.2061 34.0822 92.4681 33.9919C92.7302 33.8917 92.967 33.7362 93.1787 33.5257C93.4004 33.3051 93.5818 33.0193 93.7229 32.6684C93.8741 32.3174 93.9749 31.8863 94.0253 31.3749H90.3667V29.6002H94.0102C93.9094 28.6777 93.6423 28.021 93.2089 27.6299C92.7856 27.2289 92.2666 27.0283 91.6518 27.0283C91.1075 27.0283 90.6489 27.1687 90.276 27.4494C89.9031 27.7302 89.6612 28.1714 89.5504 28.773H87.1919C87.2322 28.1413 87.3734 27.5948 87.6152 27.1336C87.8672 26.6724 88.1897 26.2964 88.5828 26.0056C88.9859 25.7048 89.4496 25.4842 89.9737 25.3438C90.4977 25.2034 91.0571 25.1333 91.6518 25.1333C92.327 25.1333 92.9519 25.2385 93.5264 25.4491C94.111 25.6496 94.6149 25.9655 95.0382 26.3966C95.4716 26.8178 95.8092 27.3592 96.0511 28.021C96.293 28.6727 96.4139 29.4498 96.4139 30.3522V30.653C96.4139 31.6156 96.288 32.4378 96.036 33.1196C95.7941 33.8014 95.4565 34.3579 95.0231 34.789C94.5998 35.2102 94.0958 35.521 93.5113 35.7215C92.9368 35.9221 92.317 36.0223 91.6518 36.0223Z" fill="#303F95"/>
<path d="M99.4404 25.3137H101.708V29.6002H102.615L106.002 25.3137H108.511L104.354 30.292L108.662 35.8419H106.002L102.615 31.2546H101.708V35.8419H99.4404V25.3137Z" fill="#303F95"/>
<path d="M115.546 36.0223C114.881 36.0223 114.246 35.9221 113.641 35.7215C113.046 35.521 112.517 35.2052 112.054 34.774C111.6 34.3429 111.237 33.7914 110.965 33.1196C110.693 32.4378 110.557 31.6156 110.557 30.653V30.3522C110.557 29.4297 110.693 28.6426 110.965 27.9909C111.237 27.3291 111.6 26.7877 112.054 26.3666C112.517 25.9454 113.046 25.6346 113.641 25.4341C114.246 25.2335 114.881 25.1333 115.546 25.1333C116.211 25.1333 116.841 25.2335 117.436 25.4341C118.04 25.6346 118.569 25.9454 119.023 26.3666C119.487 26.7877 119.855 27.3291 120.127 27.9909C120.399 28.6426 120.535 29.4297 120.535 30.3522V30.653C120.535 31.6156 120.399 32.4378 120.127 33.1196C119.855 33.7914 119.487 34.3429 119.023 34.774C118.569 35.2052 118.04 35.521 117.436 35.7215C116.841 35.9221 116.211 36.0223 115.546 36.0223ZM115.546 34.1273C115.889 34.1273 116.216 34.0721 116.529 33.9618C116.851 33.8415 117.133 33.646 117.375 33.3753C117.617 33.1045 117.809 32.7486 117.95 32.3074C118.101 31.8662 118.176 31.3148 118.176 30.653V30.3522C118.176 29.7305 118.101 29.2091 117.95 28.788C117.809 28.3669 117.617 28.026 117.375 27.7653C117.133 27.5046 116.851 27.3191 116.529 27.2088C116.216 27.0885 115.889 27.0283 115.546 27.0283C115.203 27.0283 114.871 27.0885 114.548 27.2088C114.236 27.3191 113.958 27.5046 113.717 27.7653C113.475 28.026 113.278 28.3669 113.127 28.788C112.986 29.2091 112.915 29.7305 112.915 30.3522V30.653C112.915 31.3148 112.986 31.8662 113.127 32.3074C113.278 32.7486 113.475 33.1045 113.717 33.3753C113.958 33.646 114.236 33.8415 114.548 33.9618C114.871 34.0721 115.203 34.1273 115.546 34.1273Z" fill="#303F95"/>
<path d="M127.864 36.0223C127.168 36.0223 126.528 35.9221 125.944 35.7215C125.369 35.521 124.87 35.2102 124.447 34.789C124.024 34.3579 123.691 33.8014 123.449 33.1196C123.217 32.4378 123.101 31.6156 123.101 30.653V30.3522C123.101 29.4297 123.222 28.6426 123.464 27.9909C123.716 27.3291 124.054 26.7877 124.477 26.3666C124.91 25.9454 125.414 25.6346 125.989 25.4341C126.573 25.2335 127.198 25.1333 127.864 25.1333C128.458 25.1333 129.018 25.2034 129.542 25.3438C130.066 25.4842 130.524 25.7048 130.917 26.0056C131.321 26.2964 131.643 26.6724 131.885 27.1336C132.137 27.5948 132.283 28.1413 132.323 28.773H129.965C129.854 28.1714 129.612 27.7302 129.239 27.4494C128.866 27.1687 128.408 27.0283 127.864 27.0283C127.551 27.0283 127.249 27.0835 126.956 27.1938C126.674 27.3041 126.422 27.4896 126.201 27.7502C125.979 28.0109 125.797 28.3519 125.656 28.773C125.525 29.1941 125.46 29.7205 125.46 30.3522V30.653C125.46 31.3148 125.53 31.8713 125.671 32.3225C125.813 32.7636 125.994 33.1196 126.216 33.3903C126.447 33.651 126.704 33.8415 126.987 33.9618C127.279 34.0721 127.571 34.1273 127.864 34.1273C128.438 34.1273 128.912 33.9819 129.285 33.6911C129.658 33.3903 129.884 32.9541 129.965 32.3826H132.323C132.273 33.0444 132.127 33.6059 131.885 34.0671C131.643 34.5283 131.326 34.9044 130.933 35.1951C130.539 35.4859 130.081 35.6965 129.557 35.8268C129.033 35.9572 128.468 36.0223 127.864 36.0223Z" fill="#303F95"/>
<path d="M135.199 25.3137H137.466V32.3074L142.077 25.3137H144.27V35.8419H142.002V28.8482L137.376 35.8419H135.199V25.3137Z" fill="#303F95"/>
<path d="M152.052 36.0223C151.356 36.0223 150.716 35.9221 150.132 35.7215C149.557 35.521 149.058 35.2102 148.635 34.789C148.212 34.3579 147.879 33.8014 147.637 33.1196C147.406 32.4378 147.29 31.6156 147.29 30.653V30.3522C147.29 29.4297 147.411 28.6426 147.652 27.9909C147.904 27.3291 148.242 26.7877 148.665 26.3666C149.099 25.9454 149.603 25.6346 150.177 25.4341C150.762 25.2335 151.387 25.1333 152.052 25.1333C152.646 25.1333 153.206 25.2034 153.73 25.3438C154.254 25.4842 154.713 25.7048 155.106 26.0056C155.509 26.2964 155.831 26.6724 156.073 27.1336C156.325 27.5948 156.471 28.1413 156.512 28.773H154.153C154.042 28.1714 153.8 27.7302 153.428 27.4494C153.055 27.1687 152.596 27.0283 152.052 27.0283C151.739 27.0283 151.437 27.0835 151.145 27.1938C150.863 27.3041 150.611 27.4896 150.389 27.7502C150.167 28.0109 149.986 28.3519 149.845 28.773C149.714 29.1941 149.648 29.7205 149.648 30.3522V30.653C149.648 31.3148 149.719 31.8713 149.86 32.3225C150.001 32.7636 150.182 33.1196 150.404 33.3903C150.636 33.651 150.893 33.8415 151.175 33.9618C151.467 34.0721 151.76 34.1273 152.052 34.1273C152.626 34.1273 153.1 33.9819 153.473 33.6911C153.846 33.3903 154.073 32.9541 154.153 32.3826H156.512C156.461 33.0444 156.315 33.6059 156.073 34.0671C155.831 34.5283 155.514 34.9044 155.121 35.1951C154.728 35.4859 154.269 35.6965 153.745 35.8268C153.221 35.9572 152.657 36.0223 152.052 36.0223Z" fill="#303F95"/>
<path d="M161.616 27.1787H158.214V25.3137H167.285V27.1787H163.883V35.8419H161.616V27.1787Z" fill="#303F95"/>
<path d="M169.85 25.3137H177.258V27.1787H172.133V29.525H176.804V31.3298H172.133V33.9769H177.258V35.8419H169.85V25.3137Z" fill="#303F95"/>
<path d="M180.283 25.3137H182.551L185.771 31.2396L188.976 25.3137H191.168V35.8419H188.9V29.149L186.406 33.7362H185.045L182.551 29.149V35.8419H180.283V25.3137Z" fill="#303F95"/>
<path d="M200.509 33.6911H196.594L195.792 35.8419H193.585L197.516 25.3137H199.784L203.714 35.8419H201.326L200.509 33.6911ZM197.289 31.8261H199.829L198.559 28.1714L197.289 31.8261Z" fill="#303F95"/>
<path d="M209.775 33.9769H210.954C211.105 33.6259 211.231 33.2048 211.332 32.7135C211.433 32.2122 211.514 31.6858 211.574 31.1343C211.635 30.5728 211.68 30.0013 211.71 29.4197C211.74 28.8281 211.756 28.2616 211.756 27.7202V25.3137H219.209V33.9769H220.358V37.7971H218.332V35.8419H211.801V37.7971H209.775V33.9769ZM216.941 33.9769V27.1787H213.902V28.021C213.902 29.3946 213.837 30.5527 213.706 31.4952C213.575 32.4378 213.388 33.265 213.146 33.9769H216.941Z" fill="#303F95"/>
<path d="M223.079 25.3137H231.999V35.8419H229.731V27.1787H225.347V35.8419H223.079V25.3137Z" fill="#303F95"/>
<path d="M240.011 36.0223C239.346 36.0223 238.711 35.9221 238.106 35.7215C237.512 35.521 236.982 35.2052 236.519 34.774C236.065 34.3429 235.702 33.7914 235.43 33.1196C235.158 32.4378 235.022 31.6156 235.022 30.653V30.3522C235.022 29.4297 235.158 28.6426 235.43 27.9909C235.702 27.3291 236.065 26.7877 236.519 26.3666C236.982 25.9454 237.512 25.6346 238.106 25.4341C238.711 25.2335 239.346 25.1333 240.011 25.1333C240.676 25.1333 241.306 25.2335 241.901 25.4341C242.506 25.6346 243.035 25.9454 243.488 26.3666C243.952 26.7877 244.32 27.3291 244.592 27.9909C244.864 28.6426 245 29.4297 245 30.3522V30.653C245 31.6156 244.864 32.4378 244.592 33.1196C244.32 33.7914 243.952 34.3429 243.488 34.774C243.035 35.2052 242.506 35.521 241.901 35.7215C241.306 35.9221 240.676 36.0223 240.011 36.0223ZM240.011 34.1273C240.354 34.1273 240.681 34.0721 240.994 33.9618C241.316 33.8415 241.599 33.646 241.84 33.3753C242.082 33.1045 242.274 32.7486 242.415 32.3074C242.566 31.8662 242.642 31.3148 242.642 30.653V30.3522C242.642 29.7305 242.566 29.2091 242.415 28.788C242.274 28.3669 242.082 28.026 241.84 27.7653C241.599 27.5046 241.316 27.3191 240.994 27.2088C240.681 27.0885 240.354 27.0283 240.011 27.0283C239.668 27.0283 239.336 27.0885 239.013 27.2088C238.701 27.3191 238.424 27.5046 238.182 27.7653C237.94 28.026 237.743 28.3669 237.592 28.788C237.451 29.2091 237.381 29.7305 237.381 30.3522V30.653C237.381 31.3148 237.451 31.8662 237.592 32.3074C237.743 32.7486 237.94 33.1045 238.182 33.3753C238.424 33.646 238.701 33.8415 239.013 33.9618C239.336 34.0721 239.668 34.1273 240.011 34.1273Z" fill="#303F95"/>
<path d="M24.1018 14.9654C24.1018 14.6514 23.8946 14.3749 23.593 14.2863L0.908895 7.62345C0.454876 7.4901 0 7.83 0 8.30261V35.1438C0 35.4578 0.20717 35.7343 0.508856 35.823L23.1929 42.4858C23.6469 42.6191 24.1018 42.2792 24.1018 41.8066V14.9654Z" fill="#DDDD50"/>
<path d="M52.4573 14.9654C52.4573 14.6514 52.6644 14.3749 52.9661 14.2863L75.6502 7.62345C76.1042 7.4901 76.5591 7.83 76.5591 8.30261V35.1438C76.5591 35.4578 76.3519 35.7343 76.0502 35.823L53.3662 42.4858C52.9122 42.6191 52.4573 42.2792 52.4573 41.8066V14.9654Z" fill="#DDDD50"/>
<path d="M45.3684 11.4259C45.3684 11.1118 45.5756 10.8353 45.8772 10.7467L68.5613 4.0839C69.0153 3.95055 69.4702 4.29045 69.4702 4.76306V31.6042C69.4702 31.9183 69.263 32.1948 68.9613 32.2834L46.2773 38.9462C45.8233 39.0796 45.3684 38.7397 45.3684 38.2671V11.4259Z" fill="#2FD385"/>
<path d="M38.2793 7.88609C38.2793 7.57205 38.4865 7.29555 38.7882 7.20694L61.4722 0.544109C61.9262 0.410753 62.3811 0.750652 62.3811 1.22327V28.0645C62.3811 28.3785 62.1739 28.655 61.8722 28.7436C54.0079 31.0536 46.1439 33.3646 38.2793 35.6733V7.88609Z" fill="#303F95"/>
<path fill-rule="evenodd" clip-rule="evenodd" d="M38.2793 7.88633C38.2793 7.57229 38.0721 7.29579 37.7704 7.20718L15.0864 0.544353C14.6324 0.410997 14.1775 0.750896 14.1775 1.22351V5.87069L30.593 10.6923C30.8946 10.7809 31.1018 11.0574 31.1018 11.3715V33.5659C33.4942 34.2686 35.8867 34.9712 38.2793 35.6735V7.88633Z" fill="#54D798"/>
<path fill-rule="evenodd" clip-rule="evenodd" d="M31.1018 33.566C28.0649 32.674 25.0281 31.7819 21.9913 30.8897L21.8347 30.8437L14.6863 28.7438C14.3847 28.6552 14.1775 28.3787 14.1775 28.0647V5.87069L7.90889 4.02946C7.45487 3.89611 7 4.23601 7 4.70862V31.5498C7 31.8639 7.20717 32.1404 7.50885 32.229L30.1929 38.8918C30.6469 39.0252 31.1018 38.6853 31.1018 38.2127V33.566Z" fill="#5460A5"/>
<path fill-rule="evenodd" clip-rule="evenodd" d="M23.593 14.2821C23.8946 14.3707 24.1018 14.6472 24.1018 14.9612V31.5095L21.9913 30.8895L21.8347 30.8435L14.6863 28.7436C14.3847 28.655 14.1775 28.3785 14.1775 28.0645V11.5165L23.593 14.2821ZM6.99998 9.40828L0.908895 7.61918C0.454876 7.48583 0 7.82573 0 8.29834V35.1396C0 35.4536 0.20717 35.7301 0.508856 35.8188L23.1929 42.4816C23.6469 42.6149 24.1018 42.275 24.1018 41.8024V37.1024L7.50883 32.2287C7.20715 32.1401 6.99998 31.8636 6.99998 31.5495V9.40828Z" fill="#DDDD50"/>
<path fill-rule="evenodd" clip-rule="evenodd" d="M24.13 31.5177C24.1206 31.5149 24.1112 31.5122 24.1018 31.5094C23.3983 31.3027 22.6948 31.0961 21.9913 30.8894L21.8347 30.8434L14.6863 28.7435C14.3847 28.6549 14.1775 28.3784 14.1775 28.0644V11.5164L7 9.4082V31.5494C7 31.8635 7.20717 32.14 7.50885 32.2286L24.1018 37.1023V31.5094L24.13 31.5177Z" fill="#535F87"/>
<path fill-rule="evenodd" clip-rule="evenodd" d="M23.593 14.282C23.8946 14.3706 24.1018 14.6471 24.1018 14.9611V31.5094V37.1023L7.50885 32.2286C7.20717 32.14 7 31.8635 7 31.5494V9.4082L14.1775 11.5164L23.593 14.282Z" fill="#535F87"/>
<path fill-rule="evenodd" clip-rule="evenodd" d="M31.1018 33.5659C28.0649 32.6739 25.0281 31.7818 21.9913 30.8897C21.9391 30.8743 21.8869 30.859 21.8347 30.8437C19.4519 30.1437 17.0691 29.4437 14.6863 28.7437C14.3847 28.6551 14.1775 28.3786 14.1775 28.0646V5.87061L30.593 10.6922C30.8946 10.7808 31.1018 11.0573 31.1018 11.3714V33.5659Z" fill="#36BC8B"/>
<path fill-rule="evenodd" clip-rule="evenodd" d="M30.593 10.6922C30.8946 10.7808 31.1018 11.0573 31.1018 11.3714V33.5659C28.0649 32.6739 25.0281 31.7818 21.9913 30.8897L21.8347 30.8437L14.6863 28.7437C14.3847 28.6551 14.1775 28.3786 14.1775 28.0646V5.87061L30.593 10.6922Z" fill="#36BC8B"/>
</svg>
