<svg width="16" height="16" viewBox="0 0 16 16" fill="none" xmlns="http://www.w3.org/2000/svg">
<path fill-rule="evenodd" clip-rule="evenodd" d="M7.99996 9.33366C8.73634 9.33366 9.33329 8.73671 9.33329 8.00033C9.33329 7.26395 8.73634 6.66699 7.99996 6.66699C7.26358 6.66699 6.66663 7.26395 6.66663 8.00033C6.66663 8.73671 7.26358 9.33366 7.99996 9.33366Z" stroke="#4F4F4F" stroke-linecap="round" stroke-linejoin="round"/>
<path fill-rule="evenodd" clip-rule="evenodd" d="M13.3333 9.33366C14.0697 9.33366 14.6667 8.73671 14.6667 8.00033C14.6667 7.26395 14.0697 6.66699 13.3333 6.66699C12.597 6.66699 12 7.26395 12 8.00033C12 8.73671 12.597 9.33366 13.3333 9.33366Z" stroke="#4F4F4F" stroke-linecap="round" stroke-linejoin="round"/>
<path fill-rule="evenodd" clip-rule="evenodd" d="M2.66671 9.33366C3.40309 9.33366 4.00004 8.73671 4.00004 8.00033C4.00004 7.26395 3.40309 6.66699 2.66671 6.66699C1.93033 6.66699 1.33337 7.26395 1.33337 8.00033C1.33337 8.73671 1.93033 9.33366 2.66671 9.33366Z" stroke="#4F4F4F" stroke-linecap="round" stroke-linejoin="round"/>
</svg>
