<svg width="20" height="21" viewBox="0 0 20 21" fill="none" xmlns="http://www.w3.org/2000/svg">
<path d="M13.3339 3.83301H15.0005C15.921 3.83301 16.6672 4.5792 16.6672 5.49967V17.1663C16.6672 18.0868 15.921 18.833 15.0005 18.833H5.00053C4.08005 18.833 3.33386 18.0868 3.33386 17.1663V5.49967C3.33386 4.5792 4.08005 3.83301 5.00053 3.83301H6.6672" stroke="#4F4F4F" stroke-linecap="round" stroke-linejoin="round"/>
<path fill-rule="evenodd" clip-rule="evenodd" d="M6.66711 3.16699C6.66711 2.61471 7.11483 2.16699 7.66711 2.16699H12.3338C12.8861 2.16699 13.3338 2.61471 13.3338 3.16699V4.50033C13.3338 5.05261 12.8861 5.50033 12.3338 5.50033H7.66711C7.11483 5.50033 6.66711 5.05261 6.66711 4.50033V3.16699Z" stroke="#4F4F4F" stroke-linecap="round" stroke-linejoin="round"/>
</svg>
