<svg width="24" height="24" viewBox="0 0 24 24" fill="none" xmlns="http://www.w3.org/2000/svg">
<path d="M11.999 7.37695C10.7726 7.37695 9.59651 7.86412 8.72934 8.73129C7.86217 9.59846 7.375 10.7746 7.375 12.001C7.375 13.2273 7.86217 14.4034 8.72934 15.2706C9.59651 16.1378 10.7726 16.6249 11.999 16.6249C13.2254 16.6249 14.4015 16.1378 15.2687 15.2706C16.1358 14.4034 16.623 13.2273 16.623 12.001C16.623 10.7746 16.1358 9.59846 15.2687 8.73129C14.4015 7.86412 13.2254 7.37695 11.999 7.37695ZM11.999 15.0039C11.2023 15.0039 10.4382 14.6875 9.87485 14.1241C9.31149 13.5607 8.995 12.7967 8.995 12C8.995 11.2032 9.31149 10.4392 9.87485 9.8758C10.4382 9.31244 11.2023 8.99595 11.999 8.99595C12.7957 8.99595 13.5598 9.31244 14.1232 9.8758C14.6865 10.4392 15.003 11.2032 15.003 12C15.003 12.7967 14.6865 13.5607 14.1232 14.1241C13.5598 14.6875 12.7957 15.0039 11.999 15.0039Z" fill="white"/>
<path d="M16.806 8.28503C17.4014 8.28503 17.884 7.80239 17.884 7.20703C17.884 6.61166 17.4014 6.12903 16.806 6.12903C16.2107 6.12903 15.728 6.61166 15.728 7.20703C15.728 7.80239 16.2107 8.28503 16.806 8.28503Z" fill="white"/>
<path d="M20.5331 6.111C20.3016 5.51318 19.9478 4.97029 19.4944 4.51706C19.041 4.06384 18.498 3.71028 17.9001 3.479C17.2004 3.21636 16.4613 3.07435 15.7141 3.059C14.7511 3.017 14.4461 3.005 12.0041 3.005C9.56208 3.005 9.24908 3.005 8.29408 3.059C7.54746 3.07356 6.80883 3.21561 6.11008 3.479C5.51201 3.71001 4.96884 4.06347 4.51541 4.51673C4.06198 4.96999 3.7083 5.51303 3.47708 6.111C3.21438 6.81062 3.07269 7.54984 3.05808 8.297C3.01508 9.259 3.00208 9.564 3.00208 12.007C3.00208 14.449 3.00208 14.76 3.05808 15.717C3.07308 16.465 3.21408 17.203 3.47708 17.904C3.70895 18.5018 4.06297 19.0446 4.51651 19.4978C4.97005 19.951 5.51314 20.3046 6.11108 20.536C6.80851 20.8092 7.54745 20.9614 8.29608 20.986C9.25908 21.028 9.56408 21.041 12.0061 21.041C14.4481 21.041 14.7611 21.041 15.7161 20.986C16.4632 20.9708 17.2023 20.8291 17.9021 20.567C18.4998 20.3352 19.0427 19.9813 19.496 19.528C19.9494 19.0746 20.3033 18.5318 20.5351 17.934C20.7981 17.234 20.9391 16.496 20.9541 15.748C20.9971 14.786 21.0101 14.481 21.0101 12.038C21.0101 9.595 21.0101 9.285 20.9541 8.328C20.9424 7.57028 20.8 6.82025 20.5331 6.111ZM19.3151 15.643C19.3086 16.2193 19.2034 16.7902 19.0041 17.331C18.8539 17.7199 18.624 18.073 18.3291 18.3677C18.0343 18.6624 17.681 18.8921 17.2921 19.042C16.7573 19.2404 16.1924 19.3456 15.6221 19.353C14.6721 19.397 14.4041 19.408 11.9681 19.408C9.53008 19.408 9.28108 19.408 8.31308 19.353C7.743 19.346 7.1784 19.2408 6.64408 19.042C6.25376 18.893 5.89908 18.6637 5.60297 18.369C5.30685 18.0742 5.07591 17.7206 4.92508 17.331C4.72852 16.7961 4.62339 16.2318 4.61408 15.662C4.57108 14.712 4.56108 14.444 4.56108 12.008C4.56108 9.571 4.56108 9.322 4.61408 8.353C4.62054 7.77703 4.72573 7.20642 4.92508 6.666C5.23008 5.877 5.85508 5.256 6.64408 4.954C7.17867 4.75614 7.7431 4.65097 8.31308 4.643C9.26408 4.6 9.53108 4.588 11.9681 4.588C14.4051 4.588 14.6551 4.588 15.6221 4.643C16.1925 4.64987 16.7574 4.75508 17.2921 4.954C17.681 5.10428 18.0342 5.33421 18.329 5.62903C18.6239 5.92386 18.8538 6.27708 19.0041 6.666C19.2006 7.20095 19.3058 7.76516 19.3151 8.335C19.3581 9.286 19.3691 9.553 19.3691 11.99C19.3691 14.426 19.3691 14.688 19.3261 15.644H19.3151V15.643Z" fill="white"/>
</svg>
