<svg width="215" height="127" viewBox="0 0 215 127" fill="none" xmlns="http://www.w3.org/2000/svg">
<mask id="path-1-inside-1_0_4306" fill="white">
<path d="M0.590934 83.4883C8.02659 62.825 20.7337 44.4639 37.4526 30.2251C54.1715 15.9864 74.3215 6.36457 95.9051 2.31349C117.489 -1.73758 139.756 -0.0772211 160.5 7.12998C181.244 14.3372 199.745 26.8409 214.167 43.4017L119.148 126.151L0.590934 83.4883Z"/>
</mask>
<path d="M0.590934 83.4883C8.02659 62.825 20.7337 44.4639 37.4526 30.2251C54.1715 15.9864 74.3215 6.36457 95.9051 2.31349C117.489 -1.73758 139.756 -0.0772211 160.5 7.12998C181.244 14.3372 199.745 26.8409 214.167 43.4017L119.148 126.151L0.590934 83.4883Z" fill="#303F95" stroke="#F5F6F8" stroke-width="4" mask="url(#path-1-inside-1_0_4306)"/>
</svg>
