<svg width="127" height="208" viewBox="0 0 127 208" fill="none" xmlns="http://www.w3.org/2000/svg">
<mask id="path-1-inside-1_0_4307" fill="white">
<path d="M95.2131 0.446031C110.003 17.4366 119.968 38.0814 124.069 60.2309C128.171 82.3803 126.26 105.224 118.535 126.384C110.81 147.544 97.5533 166.246 80.1458 180.543C62.7383 194.84 41.8163 204.209 19.5584 207.674L0.175755 83.174L95.2131 0.446031Z"/>
</mask>
<path d="M95.2131 0.446031C110.003 17.4366 119.968 38.0814 124.069 60.2309C128.171 82.3803 126.26 105.224 118.535 126.384C110.81 147.544 97.5533 166.246 80.1458 180.543C62.7383 194.84 41.8163 204.209 19.5584 207.674L0.175755 83.174L95.2131 0.446031Z" fill="#303F95" stroke="#F5F6F8" stroke-width="4" mask="url(#path-1-inside-1_0_4307)"/>
</svg>
