<svg width="146" height="170" viewBox="0 0 146 170" fill="none" xmlns="http://www.w3.org/2000/svg">
<mask id="path-1-inside-1_0_4305" fill="white">
<path d="M145.9 168.419C124.216 171.887 102.001 169.628 81.4582 161.864C60.9156 154.101 42.7588 141.104 28.7876 124.161C14.8164 107.218 5.51612 86.9173 1.80862 65.2721C-1.89888 43.6268 0.115213 21.3884 7.65123 0.761497L126 44L145.9 168.419Z"/>
</mask>
<path d="M145.9 168.419C124.216 171.887 102.001 169.628 81.4582 161.864C60.9156 154.101 42.7588 141.104 28.7876 124.161C14.8164 107.218 5.51612 86.9173 1.80862 65.2721C-1.89888 43.6268 0.115213 21.3884 7.65123 0.761497L126 44L145.9 168.419Z" fill="#303F95" stroke="#F5F6F8" stroke-width="4" mask="url(#path-1-inside-1_0_4305)"/>
</svg>
